<svg width="25" height="26" viewBox="0 0 25 26" fill="none" xmlns="http://www.w3.org/2000/svg">
<g clip-path="url(#clip0_216_867)">
<path d="M1.23869 16.5295C1.8702 17.0686 2.66088 17.3612 3.46182 17.3612L4.27303 17.3612L7.19442 17.3612L8.85792 17.3612L8.85792 21.2581C8.85792 22.8959 9.3354 24.0768 10.2801 24.7699C11.7742 25.8687 13.833 25.2423 13.9203 25.2115C14.177 25.1293 14.3516 24.8932 14.3516 24.6262L14.3516 20.2672C14.3516 18.845 15.0293 17.6385 16.3693 16.6784C17.3705 15.9596 18.3922 15.6464 18.5 15.6104L18.6489 15.5745C18.8697 15.9493 19.2753 16.2009 19.7425 16.2009L23.7318 16.2009C24.4301 16.2009 25 15.631 25 14.9327L25 3.2061C25 2.50784 24.4301 1.93794 23.7318 1.93794L19.7323 1.93794C19.3421 1.93794 18.9878 2.11764 18.7568 2.39489C18.115 1.71203 17.2062 1.28589 16.2204 1.28589L12.837 1.28589L12.4878 1.28589L5.55146 1.28589C3.19484 1.28589 1.6905 2.51811 1.42352 4.67449L0.0424091 13.2436C-0.147559 14.4758 0.30939 15.7388 1.23869 16.5295ZM19.7015 3.2061C19.7015 3.18556 19.7169 3.17016 19.7374 3.17016L23.7318 3.17016C23.7524 3.17016 23.7678 3.18556 23.7678 3.2061L23.7678 14.9327C23.7678 14.9533 23.7524 14.9687 23.7318 14.9687L19.7323 14.9687C19.7117 14.9687 19.6963 14.9533 19.6963 14.9327L19.6963 3.2061L19.7015 3.2061ZM1.26949 13.4387L2.64548 4.85419C2.64548 4.84906 2.64548 4.83879 2.65061 4.82852C2.84058 3.29338 3.81608 2.51297 5.55659 2.51297L12.493 2.51297L12.8421 2.51297L16.2256 2.51297C17.3192 2.51297 18.269 3.32932 18.4384 4.40751C18.4436 4.44345 18.4538 4.47939 18.4641 4.51533L18.4641 14.3526L18.1971 14.4142C18.1869 14.4142 18.1817 14.4193 18.1714 14.4193C18.1201 14.4347 16.9033 14.7787 15.6762 15.6515C13.9973 16.8427 13.1142 18.4394 13.1142 20.2672L13.1142 24.1333C12.5802 24.2206 11.6664 24.2668 11.004 23.7739C10.3982 23.3272 10.0901 22.4801 10.0901 21.2581L10.0901 16.7502C10.0901 16.4114 9.81289 16.1341 9.47403 16.1341L7.19442 16.1341L4.27303 16.1341L3.46182 16.1341C2.95353 16.1341 2.44524 15.9442 2.03963 15.595C1.43379 15.0765 1.136 14.2499 1.26949 13.4387Z" fill="black"/>
</g>
<defs>
<clipPath id="clip0_216_867">
<rect width="25" height="25" fill="white" transform="translate(25 25.8516) rotate(-180)"/>
</clipPath>
</defs>
</svg>
