<svg xmlns="http://www.w3.org/2000/svg" width="37" height="34" fill="none" style=""><rect id="backgroundrect" width="100%" height="100%" x="0" y="0" fill="none" stroke="none"/>

<g class="currentLayer" style=""><title>Layer 1</title><path d="M18.5 0L22.6535 12.7832H36.0945L25.2205 20.6836L29.374 33.4668L18.5 25.5664L7.62597 33.4668L11.7795 20.6836L0.905455 12.7832H14.3465L18.5 0Z" fill="#D9D9D9" id="svg_1" class=""/><path d="M18.5,0 L22.6535,12.7832 H36.0945 L25.2205,20.6836 L29.374,33.4668 L18.5,25.5664 L7.625970000000001,33.4668 L11.7795,20.6836 L0.905455,12.7832 H14.3465 L18.5,0 z" fill="#D9D9D9" class="" id="svg_3"/><path d="M18.5,0 L22.6535,12.7832 H36.0945 L25.2205,20.6836 L29.374,33.4668 L18.5,25.5664 L7.625970000000001,33.4668 L11.7795,20.6836 L0.905455,12.7832 H14.3465 L18.5,0 z" fill="#D9D9D9" class="" id="svg_2"/><path d="M18.5,0 L22.6535,12.7832 H36.0945 L25.2205,20.6836 L29.374,33.4668 L18.5,25.5664 L7.6259700000000015,33.4668 L11.7795,20.6836 L0.905455,12.7832 H14.3465 L18.5,0 z" fill="#ffc107" class="selected" id="svg_4" fill-opacity="1"/></g></svg>