<svg width="20" height="11" viewBox="0 0 20 11" fill="none" xmlns="http://www.w3.org/2000/svg">
<path d="M2.92294 0.342529C2.69783 0.132769 2.40009 0.0185736 2.09245 0.0240016C1.7848 0.0294296 1.49128 0.154057 1.27371 0.371628C1.05614 0.589198 0.931508 0.882725 0.92608 1.19037C0.920652 1.49801 1.03485 1.79575 1.24461 2.02086L9.16127 9.93753C9.27155 10.0479 9.4025 10.1354 9.54662 10.1951C9.69075 10.2549 9.84523 10.2856 10.0012 10.2856C10.1572 10.2856 10.3117 10.2549 10.4558 10.1951C10.6 10.1354 10.7309 10.0479 10.8412 9.93753L18.7579 2.02086C18.9741 1.7968 19.0936 1.49677 19.0908 1.18541C19.0879 0.874056 18.9629 0.576273 18.7426 0.356204C18.5223 0.136135 18.2244 0.011387 17.9131 0.00882918C17.6017 0.00627134 17.3018 0.126108 17.0779 0.342529L10.0004 7.42003L2.92294 0.342529Z" fill="#8A8A8A"/>
</svg>
