<svg width="25" height="26" viewBox="0 0 25 26" fill="none" xmlns="http://www.w3.org/2000/svg">
<g clip-path="url(#clip0_216_864)">
<path d="M23.7613 10.1736C23.1298 9.63455 22.3391 9.3419 21.5382 9.3419H20.727H17.8056H16.1421V5.445C16.1421 3.80718 15.6646 2.6263 14.7199 1.93318C13.2258 0.834446 11.167 1.46082 11.0797 1.49163C10.823 1.57378 10.6484 1.80995 10.6484 2.07693V6.43591C10.6484 7.8581 9.97071 9.06465 8.63068 10.0248C7.6295 10.7435 6.60778 11.0567 6.49996 11.0927L6.35107 11.1286C6.1303 10.7538 5.72469 10.5022 5.25747 10.5022H1.26816C0.569902 10.5022 0 11.0721 0 11.7704V23.497C0 24.1953 0.569902 24.7652 1.26816 24.7652H5.26774C5.65794 24.7652 6.01221 24.5855 6.24325 24.3082C6.88503 24.9911 7.79379 25.4172 8.77957 25.4172H12.163H12.5122H19.4485C21.8052 25.4172 23.3095 24.185 23.5765 22.0286L24.9576 13.4596C25.1476 12.2273 24.6906 10.9643 23.7613 10.1736ZM5.29855 23.497C5.29855 23.5176 5.28314 23.533 5.26261 23.533H1.26816C1.24762 23.533 1.23222 23.5176 1.23222 23.497V11.7704C1.23222 11.7499 1.24762 11.7345 1.26816 11.7345H5.26774C5.28828 11.7345 5.30368 11.7499 5.30368 11.7704V23.497H5.29855ZM23.7305 13.2645L22.3545 21.8489C22.3545 21.8541 22.3545 21.8643 22.3494 21.8746C22.1594 23.4097 21.1839 24.1902 19.4434 24.1902H12.507H12.1579H8.77443C7.68084 24.1902 6.731 23.3738 6.56157 22.2956C6.55644 22.2597 6.54617 22.2237 6.5359 22.1878V12.3506L6.80288 12.289C6.81315 12.289 6.81828 12.2838 6.82855 12.2838C6.8799 12.2684 8.09671 11.9244 9.3238 11.0516C11.0027 9.86046 11.8858 8.26371 11.8858 6.43591V2.56982C12.4198 2.48254 13.3336 2.43633 13.996 2.92922C14.6018 3.3759 14.9099 4.22305 14.9099 5.445V9.95287C14.9099 10.2917 15.1871 10.569 15.526 10.569H17.8056H20.727H21.5382C22.0465 10.569 22.5548 10.759 22.9604 11.1081C23.5662 11.6266 23.864 12.4533 23.7305 13.2645Z" fill="black"/>
</g>
<defs>
<clipPath id="clip0_216_864">
<rect width="25" height="25" fill="white" transform="translate(0 0.851562)"/>
</clipPath>
</defs>
</svg>
